<mxfile host="app.diagrams.net" agent="Mozilla/5.0 (Windows NT 10.0; Win64; x64) AppleWebKit/537.36 (KHTML, like Gecko) Chrome/138.0.0.0 Safari/537.36" version="27.2.0">
  <diagram name="PÃ¡gina-1" id="VQOAlmv7uHuTX69eFy1N">
    <mxGraphModel grid="1" page="1" gridSize="10" guides="1" tooltips="1" connect="1" arrows="1" fold="1" pageScale="1" pageWidth="827" pageHeight="1169" math="0" shadow="0">
      <root>
        <mxCell id="0" />
        <mxCell id="1" parent="0" />
        <mxCell id="CVUoFzTjdxVKURmCJ-Hu-42" value="Usuario" style="shape=umlLifeline;perimeter=lifelinePerimeter;whiteSpace=wrap;container=1;dropTarget=0;collapsible=0;recursiveResize=0;outlineConnect=0;portConstraint=eastwest;newEdgeStyle={&quot;edgeStyle&quot;:&quot;elbowEdgeStyle&quot;,&quot;elbow&quot;:&quot;vertical&quot;,&quot;curved&quot;:0,&quot;rounded&quot;:0};participant=umlActor;verticalAlign=bottom;labelPosition=center;verticalLabelPosition=top;align=center;size=65;" vertex="1" parent="1">
          <mxGeometry x="20" y="20" width="35" height="1313" as="geometry" />
        </mxCell>
        <mxCell id="CVUoFzTjdxVKURmCJ-Hu-52" value="CriarPersonagemPage" style="shape=umlLifeline;perimeter=lifelinePerimeter;whiteSpace=wrap;container=1;dropTarget=0;collapsible=0;recursiveResize=0;outlineConnect=0;portConstraint=eastwest;newEdgeStyle={&quot;edgeStyle&quot;:&quot;elbowEdgeStyle&quot;,&quot;elbow&quot;:&quot;vertical&quot;,&quot;curved&quot;:0,&quot;rounded&quot;:0};size=65;" vertex="1" parent="1">
          <mxGeometry x="190" y="20" width="150" height="1313" as="geometry" />
        </mxCell>
        <mxCell id="CVUoFzTjdxVKURmCJ-Hu-53" value="" style="points=[];perimeter=orthogonalPerimeter;outlineConnect=0;targetShapes=umlLifeline;portConstraint=eastwest;newEdgeStyle={&quot;edgeStyle&quot;:&quot;elbowEdgeStyle&quot;,&quot;elbow&quot;:&quot;vertical&quot;,&quot;curved&quot;:0,&quot;rounded&quot;:0}" vertex="1" parent="CVUoFzTjdxVKURmCJ-Hu-52">
          <mxGeometry x="70" y="107" width="10" height="1111" as="geometry" />
        </mxCell>
        <mxCell id="CVUoFzTjdxVKURmCJ-Hu-54" value="CriarPersonagemViewModel" style="shape=umlLifeline;perimeter=lifelinePerimeter;whiteSpace=wrap;container=1;dropTarget=0;collapsible=0;recursiveResize=0;outlineConnect=0;portConstraint=eastwest;newEdgeStyle={&quot;edgeStyle&quot;:&quot;elbowEdgeStyle&quot;,&quot;elbow&quot;:&quot;vertical&quot;,&quot;curved&quot;:0,&quot;rounded&quot;:0};size=65;" vertex="1" parent="1">
          <mxGeometry x="522" y="20" width="150" height="1313" as="geometry" />
        </mxCell>
        <mxCell id="CVUoFzTjdxVKURmCJ-Hu-55" value="" style="points=[];perimeter=orthogonalPerimeter;outlineConnect=0;targetShapes=umlLifeline;portConstraint=eastwest;newEdgeStyle={&quot;edgeStyle&quot;:&quot;elbowEdgeStyle&quot;,&quot;elbow&quot;:&quot;vertical&quot;,&quot;curved&quot;:0,&quot;rounded&quot;:0}" vertex="1" parent="CVUoFzTjdxVKURmCJ-Hu-54">
          <mxGeometry x="70" y="159" width="10" height="997" as="geometry" />
        </mxCell>
        <mxCell id="CVUoFzTjdxVKURmCJ-Hu-56" value="PersonagemFactoryImpl" style="shape=umlLifeline;perimeter=lifelinePerimeter;whiteSpace=wrap;container=1;dropTarget=0;collapsible=0;recursiveResize=0;outlineConnect=0;portConstraint=eastwest;newEdgeStyle={&quot;edgeStyle&quot;:&quot;elbowEdgeStyle&quot;,&quot;elbow&quot;:&quot;vertical&quot;,&quot;curved&quot;:0,&quot;rounded&quot;:0};size=65;" vertex="1" parent="1">
          <mxGeometry x="771" y="20" width="150" height="1313" as="geometry" />
        </mxCell>
        <mxCell id="CVUoFzTjdxVKURmCJ-Hu-57" value="" style="points=[];perimeter=orthogonalPerimeter;outlineConnect=0;targetShapes=umlLifeline;portConstraint=eastwest;newEdgeStyle={&quot;edgeStyle&quot;:&quot;elbowEdgeStyle&quot;,&quot;elbow&quot;:&quot;vertical&quot;,&quot;curved&quot;:0,&quot;rounded&quot;:0}" vertex="1" parent="CVUoFzTjdxVKURmCJ-Hu-56">
          <mxGeometry x="70" y="211" width="10" height="730" as="geometry" />
        </mxCell>
        <mxCell id="CVUoFzTjdxVKURmCJ-Hu-58" value="IRacaRepository" style="shape=umlLifeline;perimeter=lifelinePerimeter;whiteSpace=wrap;container=1;dropTarget=0;collapsible=0;recursiveResize=0;outlineConnect=0;portConstraint=eastwest;newEdgeStyle={&quot;edgeStyle&quot;:&quot;elbowEdgeStyle&quot;,&quot;elbow&quot;:&quot;vertical&quot;,&quot;curved&quot;:0,&quot;rounded&quot;:0};size=65;" vertex="1" parent="1">
          <mxGeometry x="971" y="20" width="150" height="1313" as="geometry" />
        </mxCell>
        <mxCell id="CVUoFzTjdxVKURmCJ-Hu-59" value="IClassePersonagemRepository" style="shape=umlLifeline;perimeter=lifelinePerimeter;whiteSpace=wrap;container=1;dropTarget=0;collapsible=0;recursiveResize=0;outlineConnect=0;portConstraint=eastwest;newEdgeStyle={&quot;edgeStyle&quot;:&quot;elbowEdgeStyle&quot;,&quot;elbow&quot;:&quot;vertical&quot;,&quot;curved&quot;:0,&quot;rounded&quot;:0};size=65;" vertex="1" parent="1">
          <mxGeometry x="1171" y="20" width="150" height="1313" as="geometry" />
        </mxCell>
        <mxCell id="CVUoFzTjdxVKURmCJ-Hu-60" value="IArmaRepository" style="shape=umlLifeline;perimeter=lifelinePerimeter;whiteSpace=wrap;container=1;dropTarget=0;collapsible=0;recursiveResize=0;outlineConnect=0;portConstraint=eastwest;newEdgeStyle={&quot;edgeStyle&quot;:&quot;elbowEdgeStyle&quot;,&quot;elbow&quot;:&quot;vertical&quot;,&quot;curved&quot;:0,&quot;rounded&quot;:0};size=65;" vertex="1" parent="1">
          <mxGeometry x="1371" y="20" width="150" height="1313" as="geometry" />
        </mxCell>
        <mxCell id="CVUoFzTjdxVKURmCJ-Hu-61" value="IArmaduraRepository" style="shape=umlLifeline;perimeter=lifelinePerimeter;whiteSpace=wrap;container=1;dropTarget=0;collapsible=0;recursiveResize=0;outlineConnect=0;portConstraint=eastwest;newEdgeStyle={&quot;edgeStyle&quot;:&quot;elbowEdgeStyle&quot;,&quot;elbow&quot;:&quot;vertical&quot;,&quot;curved&quot;:0,&quot;rounded&quot;:0};size=65;" vertex="1" parent="1">
          <mxGeometry x="1571" y="20" width="150" height="1313" as="geometry" />
        </mxCell>
        <mxCell id="CVUoFzTjdxVKURmCJ-Hu-62" value="IHabilidadeRepository" style="shape=umlLifeline;perimeter=lifelinePerimeter;whiteSpace=wrap;container=1;dropTarget=0;collapsible=0;recursiveResize=0;outlineConnect=0;portConstraint=eastwest;newEdgeStyle={&quot;edgeStyle&quot;:&quot;elbowEdgeStyle&quot;,&quot;elbow&quot;:&quot;vertical&quot;,&quot;curved&quot;:0,&quot;rounded&quot;:0};size=65;" vertex="1" parent="1">
          <mxGeometry x="1771" y="20" width="150" height="1313" as="geometry" />
        </mxCell>
        <mxCell id="CVUoFzTjdxVKURmCJ-Hu-63" value="IPersonagemRepository" style="shape=umlLifeline;perimeter=lifelinePerimeter;whiteSpace=wrap;container=1;dropTarget=0;collapsible=0;recursiveResize=0;outlineConnect=0;portConstraint=eastwest;newEdgeStyle={&quot;edgeStyle&quot;:&quot;elbowEdgeStyle&quot;,&quot;elbow&quot;:&quot;vertical&quot;,&quot;curved&quot;:0,&quot;rounded&quot;:0};size=65;" vertex="1" parent="1">
          <mxGeometry x="2157" y="20" width="150" height="1313" as="geometry" />
        </mxCell>
        <mxCell id="CVUoFzTjdxVKURmCJ-Hu-64" value="" style="points=[];perimeter=orthogonalPerimeter;outlineConnect=0;targetShapes=umlLifeline;portConstraint=eastwest;newEdgeStyle={&quot;edgeStyle&quot;:&quot;elbowEdgeStyle&quot;,&quot;elbow&quot;:&quot;vertical&quot;,&quot;curved&quot;:0,&quot;rounded&quot;:0}" vertex="1" parent="CVUoFzTjdxVKURmCJ-Hu-63">
          <mxGeometry x="70" y="1003" width="10" height="91" as="geometry" />
        </mxCell>
        <mxCell id="CVUoFzTjdxVKURmCJ-Hu-65" value="opt" style="shape=umlFrame;dashed=1;pointerEvents=0;dropTarget=0;strokeColor=#B3B3B3;height=20;width=30" vertex="1" parent="1">
          <mxGeometry x="831" y="459" width="626" height="150" as="geometry" />
        </mxCell>
        <mxCell id="CVUoFzTjdxVKURmCJ-Hu-66" value="[Se armaId for fornecido]" style="text;strokeColor=none;fillColor=none;align=center;verticalAlign=middle;whiteSpace=wrap;" vertex="1" parent="CVUoFzTjdxVKURmCJ-Hu-65">
          <mxGeometry x="30" width="596" height="20" as="geometry" />
        </mxCell>
        <mxCell id="CVUoFzTjdxVKURmCJ-Hu-67" value="opt" style="shape=umlFrame;dashed=1;pointerEvents=0;dropTarget=0;strokeColor=#B3B3B3;height=20;width=30" vertex="1" parent="1">
          <mxGeometry x="831" y="619" width="826" height="150" as="geometry" />
        </mxCell>
        <mxCell id="CVUoFzTjdxVKURmCJ-Hu-68" value="[Se armaduraId for fornecido]" style="text;strokeColor=none;fillColor=none;align=center;verticalAlign=middle;whiteSpace=wrap;" vertex="1" parent="CVUoFzTjdxVKURmCJ-Hu-67">
          <mxGeometry x="30" width="796" height="20" as="geometry" />
        </mxCell>
        <mxCell id="CVUoFzTjdxVKURmCJ-Hu-69" value="loop" style="shape=umlFrame;dashed=1;pointerEvents=0;dropTarget=0;strokeColor=#B3B3B3;height=20;width=40" vertex="1" parent="1">
          <mxGeometry x="831" y="779" width="1026" height="150" as="geometry" />
        </mxCell>
        <mxCell id="CVUoFzTjdxVKURmCJ-Hu-70" value="[Para cada habilidadeId]" style="text;strokeColor=none;fillColor=none;align=center;verticalAlign=middle;whiteSpace=wrap;" vertex="1" parent="CVUoFzTjdxVKURmCJ-Hu-69">
          <mxGeometry x="40" width="986" height="20" as="geometry" />
        </mxCell>
        <mxCell id="CVUoFzTjdxVKURmCJ-Hu-71" value="preencheDados() e clica Salvar" style="verticalAlign=bottom;edgeStyle=elbowEdgeStyle;elbow=vertical;curved=0;rounded=0;endArrow=block;" edge="1" parent="1" source="CVUoFzTjdxVKURmCJ-Hu-42" target="CVUoFzTjdxVKURmCJ-Hu-53">
          <mxGeometry relative="1" as="geometry">
            <Array as="points">
              <mxPoint x="140" y="130" />
            </Array>
          </mxGeometry>
        </mxCell>
        <mxCell id="CVUoFzTjdxVKURmCJ-Hu-72" value="criarOuAtualizarPersonagem(params)" style="verticalAlign=bottom;edgeStyle=elbowEdgeStyle;elbow=vertical;curved=0;rounded=0;endArrow=block;" edge="1" parent="1" source="CVUoFzTjdxVKURmCJ-Hu-53" target="CVUoFzTjdxVKURmCJ-Hu-55">
          <mxGeometry relative="1" as="geometry">
            <Array as="points">
              <mxPoint x="442" y="179" />
            </Array>
          </mxGeometry>
        </mxCell>
        <mxCell id="CVUoFzTjdxVKURmCJ-Hu-73" value="criarPersonagem(params)" style="verticalAlign=bottom;edgeStyle=elbowEdgeStyle;elbow=vertical;curved=0;rounded=0;endArrow=block;" edge="1" parent="1" source="CVUoFzTjdxVKURmCJ-Hu-55" target="CVUoFzTjdxVKURmCJ-Hu-57">
          <mxGeometry relative="1" as="geometry">
            <Array as="points">
              <mxPoint x="732" y="231" />
            </Array>
          </mxGeometry>
        </mxCell>
        <mxCell id="CVUoFzTjdxVKURmCJ-Hu-74" value="getById(racaId)" style="verticalAlign=bottom;edgeStyle=elbowEdgeStyle;elbow=vertical;curved=0;rounded=0;endArrow=block;" edge="1" parent="1" source="CVUoFzTjdxVKURmCJ-Hu-57" target="CVUoFzTjdxVKURmCJ-Hu-58">
          <mxGeometry relative="1" as="geometry">
            <Array as="points">
              <mxPoint x="957" y="283" />
            </Array>
          </mxGeometry>
        </mxCell>
        <mxCell id="CVUoFzTjdxVKURmCJ-Hu-75" value="raca" style="verticalAlign=bottom;edgeStyle=elbowEdgeStyle;elbow=vertical;curved=0;rounded=0;dashed=1;dashPattern=2 3;endArrow=block;" edge="1" parent="1" source="CVUoFzTjdxVKURmCJ-Hu-58" target="CVUoFzTjdxVKURmCJ-Hu-57">
          <mxGeometry relative="1" as="geometry">
            <Array as="points">
              <mxPoint x="960" y="335" />
            </Array>
          </mxGeometry>
        </mxCell>
        <mxCell id="CVUoFzTjdxVKURmCJ-Hu-76" value="getById(classeId)" style="verticalAlign=bottom;edgeStyle=elbowEdgeStyle;elbow=vertical;curved=0;rounded=0;endArrow=block;" edge="1" parent="1" source="CVUoFzTjdxVKURmCJ-Hu-57" target="CVUoFzTjdxVKURmCJ-Hu-59">
          <mxGeometry relative="1" as="geometry">
            <Array as="points">
              <mxPoint x="1057" y="387" />
            </Array>
          </mxGeometry>
        </mxCell>
        <mxCell id="CVUoFzTjdxVKURmCJ-Hu-77" value="classe" style="verticalAlign=bottom;edgeStyle=elbowEdgeStyle;elbow=vertical;curved=0;rounded=0;dashed=1;dashPattern=2 3;endArrow=block;" edge="1" parent="1" source="CVUoFzTjdxVKURmCJ-Hu-59" target="CVUoFzTjdxVKURmCJ-Hu-57">
          <mxGeometry relative="1" as="geometry">
            <Array as="points">
              <mxPoint x="1060" y="439" />
            </Array>
          </mxGeometry>
        </mxCell>
        <mxCell id="CVUoFzTjdxVKURmCJ-Hu-78" value="getById(armaId)" style="verticalAlign=bottom;edgeStyle=elbowEdgeStyle;elbow=vertical;curved=0;rounded=0;endArrow=block;" edge="1" parent="1" source="CVUoFzTjdxVKURmCJ-Hu-57" target="CVUoFzTjdxVKURmCJ-Hu-60">
          <mxGeometry relative="1" as="geometry">
            <Array as="points">
              <mxPoint x="1157" y="537" />
            </Array>
          </mxGeometry>
        </mxCell>
        <mxCell id="CVUoFzTjdxVKURmCJ-Hu-79" value="arma" style="verticalAlign=bottom;edgeStyle=elbowEdgeStyle;elbow=vertical;curved=0;rounded=0;dashed=1;dashPattern=2 3;endArrow=block;" edge="1" parent="1" source="CVUoFzTjdxVKURmCJ-Hu-60" target="CVUoFzTjdxVKURmCJ-Hu-57">
          <mxGeometry relative="1" as="geometry">
            <Array as="points">
              <mxPoint x="1160" y="589" />
            </Array>
          </mxGeometry>
        </mxCell>
        <mxCell id="CVUoFzTjdxVKURmCJ-Hu-80" value="getById(armaduraId)" style="verticalAlign=bottom;edgeStyle=elbowEdgeStyle;elbow=vertical;curved=0;rounded=0;endArrow=block;" edge="1" parent="1" source="CVUoFzTjdxVKURmCJ-Hu-57" target="CVUoFzTjdxVKURmCJ-Hu-61">
          <mxGeometry relative="1" as="geometry">
            <Array as="points">
              <mxPoint x="1257" y="697" />
            </Array>
          </mxGeometry>
        </mxCell>
        <mxCell id="CVUoFzTjdxVKURmCJ-Hu-81" value="armadura" style="verticalAlign=bottom;edgeStyle=elbowEdgeStyle;elbow=vertical;curved=0;rounded=0;dashed=1;dashPattern=2 3;endArrow=block;" edge="1" parent="1" source="CVUoFzTjdxVKURmCJ-Hu-61" target="CVUoFzTjdxVKURmCJ-Hu-57">
          <mxGeometry relative="1" as="geometry">
            <Array as="points">
              <mxPoint x="1260" y="749" />
            </Array>
          </mxGeometry>
        </mxCell>
        <mxCell id="CVUoFzTjdxVKURmCJ-Hu-82" value="getById(habilidadeId)" style="verticalAlign=bottom;edgeStyle=elbowEdgeStyle;elbow=vertical;curved=0;rounded=0;endArrow=block;" edge="1" parent="1" source="CVUoFzTjdxVKURmCJ-Hu-57" target="CVUoFzTjdxVKURmCJ-Hu-62">
          <mxGeometry relative="1" as="geometry">
            <Array as="points">
              <mxPoint x="1357" y="857" />
            </Array>
          </mxGeometry>
        </mxCell>
        <mxCell id="CVUoFzTjdxVKURmCJ-Hu-83" value="habilidade" style="verticalAlign=bottom;edgeStyle=elbowEdgeStyle;elbow=vertical;curved=0;rounded=0;dashed=1;dashPattern=2 3;endArrow=block;" edge="1" parent="1" source="CVUoFzTjdxVKURmCJ-Hu-62" target="CVUoFzTjdxVKURmCJ-Hu-57">
          <mxGeometry relative="1" as="geometry">
            <Array as="points">
              <mxPoint x="1360" y="909" />
            </Array>
          </mxGeometry>
        </mxCell>
        <mxCell id="CVUoFzTjdxVKURmCJ-Hu-84" value="personagem" style="verticalAlign=bottom;edgeStyle=elbowEdgeStyle;elbow=vertical;curved=0;rounded=0;dashed=1;dashPattern=2 3;endArrow=block;" edge="1" parent="1" source="CVUoFzTjdxVKURmCJ-Hu-56" target="CVUoFzTjdxVKURmCJ-Hu-55">
          <mxGeometry relative="1" as="geometry">
            <Array as="points">
              <mxPoint x="733" y="971" />
            </Array>
          </mxGeometry>
        </mxCell>
        <mxCell id="CVUoFzTjdxVKURmCJ-Hu-85" value="save(personagem)" style="verticalAlign=bottom;edgeStyle=elbowEdgeStyle;elbow=vertical;curved=0;rounded=0;endArrow=block;" edge="1" parent="1" source="CVUoFzTjdxVKURmCJ-Hu-55" target="CVUoFzTjdxVKURmCJ-Hu-64">
          <mxGeometry relative="1" as="geometry">
            <Array as="points">
              <mxPoint x="1425" y="1023" />
            </Array>
          </mxGeometry>
        </mxCell>
        <mxCell id="CVUoFzTjdxVKURmCJ-Hu-86" value="void" style="verticalAlign=bottom;edgeStyle=elbowEdgeStyle;elbow=vertical;curved=0;rounded=0;dashed=1;dashPattern=2 3;endArrow=block;" edge="1" parent="1" source="CVUoFzTjdxVKURmCJ-Hu-63" target="CVUoFzTjdxVKURmCJ-Hu-55">
          <mxGeometry relative="1" as="geometry">
            <Array as="points">
              <mxPoint x="1426" y="1124" />
            </Array>
          </mxGeometry>
        </mxCell>
        <mxCell id="CVUoFzTjdxVKURmCJ-Hu-87" value="success" style="verticalAlign=bottom;edgeStyle=elbowEdgeStyle;elbow=vertical;curved=0;rounded=0;dashed=1;dashPattern=2 3;endArrow=block;" edge="1" parent="1" source="CVUoFzTjdxVKURmCJ-Hu-55" target="CVUoFzTjdxVKURmCJ-Hu-53">
          <mxGeometry relative="1" as="geometry">
            <Array as="points">
              <mxPoint x="443" y="1176" />
            </Array>
          </mxGeometry>
        </mxCell>
        <mxCell id="CVUoFzTjdxVKURmCJ-Hu-88" value="Exibe confirmaÃ§Ã£o" style="verticalAlign=bottom;edgeStyle=elbowEdgeStyle;elbow=vertical;curved=0;rounded=0;dashed=1;dashPattern=2 3;endArrow=block;" edge="1" parent="1" source="CVUoFzTjdxVKURmCJ-Hu-53" target="CVUoFzTjdxVKURmCJ-Hu-42">
          <mxGeometry relative="1" as="geometry">
            <Array as="points">
              <mxPoint x="190" y="1228" />
            </Array>
          </mxGeometry>
        </mxCell>
        <mxCell id="CVUoFzTjdxVKURmCJ-Hu-89" value="Insere em combatentes, personagens, combatente_equipamentos e combatente_habilidades" style="fillColor=#ffff88;strokeColor=#9E916F;" vertex="1" parent="1">
          <mxGeometry x="1896" y="1043" width="672" height="49" as="geometry" />
        </mxCell>
      </root>
    </mxGraphModel>
  </diagram>
</mxfile>
